<svg xmlns="http://www.w3.org/2000/svg" xmlns:xlink="http://www.w3.org/1999/xlink" width="500" zoomAndPan="magnify" viewBox="0 0 375 374.999991" height="500" preserveAspectRatio="xMidYMid meet" version="1.0"><defs><g/><clipPath id="d9034db8ba"><rect x="0" width="361" y="0" height="135"/></clipPath><clipPath id="5cb61cc651"><path d="M 106.773438 37.5 L 268.023438 37.5 L 268.023438 198.75 L 106.773438 198.75 Z M 106.773438 37.5 " clip-rule="nonzero"/></clipPath></defs><g transform="matrix(1, 0, 0, 1, 7, 206)"><g clip-path="url(#d9034db8ba)"><g fill="#ffffff" fill-opacity="1"><g transform="translate(1.475586, 51.844328)"><g><path d="M 22.546875 0 L 22.546875 -0.984375 C 23.660156 -1.046875 24.5 -1.175781 25.0625 -1.375 C 25.632812 -1.570312 26.019531 -1.960938 26.21875 -2.546875 C 26.414062 -3.140625 26.515625 -4.023438 26.515625 -5.203125 L 26.515625 -29.5 C 26.515625 -30.71875 26.414062 -31.609375 26.21875 -32.171875 C 26.019531 -32.742188 25.632812 -33.132812 25.0625 -33.34375 C 24.5 -33.5625 23.660156 -33.6875 22.546875 -33.71875 L 22.546875 -34.703125 C 23.296875 -34.671875 24.242188 -34.640625 25.390625 -34.609375 C 26.535156 -34.578125 27.660156 -34.5625 28.765625 -34.5625 C 30.046875 -34.5625 31.238281 -34.578125 32.34375 -34.609375 C 33.457031 -34.640625 34.359375 -34.671875 35.046875 -34.703125 L 35.046875 -33.71875 C 33.929688 -33.6875 33.085938 -33.5625 32.515625 -33.34375 C 31.941406 -33.132812 31.554688 -32.742188 31.359375 -32.171875 C 31.171875 -31.609375 31.078125 -30.71875 31.078125 -29.5 L 31.078125 -5.203125 C 31.078125 -4.023438 31.171875 -3.140625 31.359375 -2.546875 C 31.554688 -1.960938 31.941406 -1.570312 32.515625 -1.375 C 33.085938 -1.175781 33.929688 -1.046875 35.046875 -0.984375 L 35.046875 0 C 34.359375 -0.0625 33.457031 -0.0976562 32.34375 -0.109375 C 31.238281 -0.128906 30.046875 -0.140625 28.765625 -0.140625 C 27.660156 -0.140625 26.535156 -0.128906 25.390625 -0.109375 C 24.242188 -0.0976562 23.296875 -0.0625 22.546875 0 Z M 2.0625 0 L 2.0625 -0.984375 C 3.164062 -1.046875 4.003906 -1.175781 4.578125 -1.375 C 5.148438 -1.570312 5.535156 -1.960938 5.734375 -2.546875 C 5.929688 -3.140625 6.03125 -4.023438 6.03125 -5.203125 L 6.03125 -29.5 C 6.03125 -30.71875 5.929688 -31.609375 5.734375 -32.171875 C 5.535156 -32.742188 5.148438 -33.132812 4.578125 -33.34375 C 4.003906 -33.5625 3.164062 -33.6875 2.0625 -33.71875 L 2.0625 -34.703125 C 2.75 -34.671875 3.644531 -34.640625 4.75 -34.609375 C 5.863281 -34.578125 7.054688 -34.5625 8.328125 -34.5625 C 9.472656 -34.5625 10.609375 -34.578125 11.734375 -34.609375 C 12.867188 -34.640625 13.8125 -34.671875 14.5625 -34.703125 L 14.5625 -33.71875 C 13.445312 -33.6875 12.601562 -33.5625 12.03125 -33.34375 C 11.457031 -33.132812 11.070312 -32.742188 10.875 -32.171875 C 10.6875 -31.609375 10.59375 -30.71875 10.59375 -29.5 L 10.59375 -5.203125 C 10.59375 -4.023438 10.6875 -3.140625 10.875 -2.546875 C 11.070312 -1.960938 11.457031 -1.570312 12.03125 -1.375 C 12.601562 -1.175781 13.445312 -1.046875 14.5625 -0.984375 L 14.5625 0 C 13.8125 -0.0625 12.867188 -0.0976562 11.734375 -0.109375 C 10.609375 -0.128906 9.472656 -0.140625 8.328125 -0.140625 C 7.054688 -0.140625 5.863281 -0.128906 4.75 -0.109375 C 3.644531 -0.0976562 2.75 -0.0625 2.0625 0 Z M 8.875 -16.953125 L 8.875 -17.9375 L 28.234375 -17.9375 L 28.234375 -16.953125 Z M 8.875 -16.953125 "/></g></g></g><g fill="#ffffff" fill-opacity="1"><g transform="translate(38.582834, 51.844328)"><g><path d="M 15.828125 -34.953125 L 27.796875 -4.125 C 28.285156 -2.875 28.835938 -2.046875 29.453125 -1.640625 C 30.078125 -1.234375 30.648438 -1.015625 31.171875 -0.984375 L 31.171875 0 C 30.515625 -0.0625 29.710938 -0.0976562 28.765625 -0.109375 C 27.816406 -0.128906 26.867188 -0.140625 25.921875 -0.140625 C 24.648438 -0.140625 23.457031 -0.128906 22.34375 -0.109375 C 21.238281 -0.0976562 20.34375 -0.0625 19.65625 0 L 19.65625 -0.984375 C 21.320312 -1.046875 22.382812 -1.328125 22.84375 -1.828125 C 23.300781 -2.335938 23.203125 -3.425781 22.546875 -5.09375 L 13.4375 -29.453125 L 14.21875 -30.09375 L 5.6875 -7.9375 C 5.164062 -6.632812 4.851562 -5.53125 4.75 -4.625 C 4.65625 -3.726562 4.742188 -3.019531 5.015625 -2.5 C 5.296875 -1.976562 5.769531 -1.601562 6.4375 -1.375 C 7.113281 -1.144531 7.957031 -1.015625 8.96875 -0.984375 L 8.96875 0 C 8.050781 -0.0625 7.09375 -0.0976562 6.09375 -0.109375 C 5.101562 -0.128906 4.179688 -0.140625 3.328125 -0.140625 C 2.515625 -0.140625 1.820312 -0.128906 1.25 -0.109375 C 0.675781 -0.0976562 0.144531 -0.0625 -0.34375 0 L -0.34375 -0.984375 C 0.3125 -1.140625 0.984375 -1.519531 1.671875 -2.125 C 2.359375 -2.726562 2.976562 -3.769531 3.53125 -5.25 L 15.046875 -34.953125 C 15.179688 -34.953125 15.3125 -34.953125 15.4375 -34.953125 C 15.570312 -34.953125 15.703125 -34.953125 15.828125 -34.953125 Z M 21.8125 -14.109375 L 21.8125 -13.140625 L 7.203125 -13.140625 L 7.703125 -14.109375 Z M 21.8125 -14.109375 "/></g></g></g><g fill="#ffffff" fill-opacity="1"><g transform="translate(69.464702, 51.844328)"><g><path d="M 32.84375 -34.703125 L 32.84375 -33.71875 C 31.726562 -33.6875 30.882812 -33.523438 30.3125 -33.234375 C 29.738281 -32.941406 29.351562 -32.46875 29.15625 -31.8125 C 28.96875 -31.15625 28.875 -30.222656 28.875 -29.015625 L 28.875 0.25 C 28.675781 0.25 28.484375 0.25 28.296875 0.25 C 28.117188 0.25 27.9375 0.25 27.75 0.25 L 7.15625 -31.5625 L 7.15625 -5.6875 C 7.15625 -4.507812 7.257812 -3.582031 7.46875 -2.90625 C 7.6875 -2.238281 8.113281 -1.765625 8.75 -1.484375 C 9.382812 -1.210938 10.335938 -1.046875 11.609375 -0.984375 L 11.609375 0 C 11.023438 -0.0625 10.257812 -0.0976562 9.3125 -0.109375 C 8.363281 -0.128906 7.460938 -0.140625 6.609375 -0.140625 C 5.796875 -0.140625 4.972656 -0.128906 4.140625 -0.109375 C 3.304688 -0.0976562 2.613281 -0.0625 2.0625 0 L 2.0625 -0.984375 C 3.164062 -1.046875 4.003906 -1.210938 4.578125 -1.484375 C 5.148438 -1.765625 5.535156 -2.238281 5.734375 -2.90625 C 5.929688 -3.582031 6.03125 -4.507812 6.03125 -5.6875 L 6.03125 -29.5 C 6.03125 -30.71875 5.929688 -31.609375 5.734375 -32.171875 C 5.535156 -32.742188 5.148438 -33.132812 4.578125 -33.34375 C 4.003906 -33.5625 3.164062 -33.6875 2.0625 -33.71875 L 2.0625 -34.703125 C 2.613281 -34.671875 3.304688 -34.640625 4.140625 -34.609375 C 4.972656 -34.578125 5.796875 -34.5625 6.609375 -34.5625 C 7.335938 -34.5625 8.023438 -34.578125 8.671875 -34.609375 C 9.328125 -34.640625 9.914062 -34.671875 10.4375 -34.703125 L 27.75 -8.03125 L 27.75 -29.015625 C 27.75 -30.222656 27.640625 -31.15625 27.421875 -31.8125 C 27.210938 -32.46875 26.785156 -32.941406 26.140625 -33.234375 C 25.503906 -33.523438 24.550781 -33.6875 23.28125 -33.71875 L 23.28125 -34.703125 C 23.875 -34.671875 24.648438 -34.640625 25.609375 -34.609375 C 26.578125 -34.578125 27.46875 -34.5625 28.28125 -34.5625 C 29.132812 -34.5625 29.976562 -34.578125 30.8125 -34.609375 C 31.644531 -34.640625 32.320312 -34.671875 32.84375 -34.703125 Z M 32.84375 -34.703125 "/></g></g></g><g fill="#ffffff" fill-opacity="1"><g transform="translate(104.071996, 51.844328)"><g><path d="M 15.4375 -34.703125 C 21.289062 -34.703125 25.640625 -33.238281 28.484375 -30.3125 C 31.328125 -27.382812 32.75 -23.195312 32.75 -17.75 C 32.75 -14.1875 32.050781 -11.070312 30.65625 -8.40625 C 29.269531 -5.738281 27.253906 -3.671875 24.609375 -2.203125 C 21.960938 -0.734375 18.757812 0 15 0 C 14.507812 0 13.851562 -0.015625 13.03125 -0.046875 C 12.21875 -0.078125 11.378906 -0.0976562 10.515625 -0.109375 C 9.648438 -0.128906 8.859375 -0.140625 8.140625 -0.140625 C 6.992188 -0.140625 5.863281 -0.128906 4.75 -0.109375 C 3.644531 -0.0976562 2.75 -0.0625 2.0625 0 L 2.0625 -0.984375 C 3.164062 -1.046875 4.003906 -1.175781 4.578125 -1.375 C 5.148438 -1.570312 5.535156 -1.960938 5.734375 -2.546875 C 5.929688 -3.140625 6.03125 -4.023438 6.03125 -5.203125 L 6.03125 -29.5 C 6.03125 -30.71875 5.929688 -31.609375 5.734375 -32.171875 C 5.535156 -32.742188 5.148438 -33.132812 4.578125 -33.34375 C 4.003906 -33.5625 3.164062 -33.6875 2.0625 -33.71875 L 2.0625 -34.703125 C 2.75 -34.671875 3.644531 -34.628906 4.75 -34.578125 C 5.863281 -34.523438 6.957031 -34.519531 8.03125 -34.5625 C 9.175781 -34.59375 10.46875 -34.625 11.90625 -34.65625 C 13.34375 -34.6875 14.519531 -34.703125 15.4375 -34.703125 Z M 14.21875 -33.828125 C 12.707031 -33.828125 11.722656 -33.546875 11.265625 -32.984375 C 10.816406 -32.429688 10.59375 -31.304688 10.59375 -29.609375 L 10.59375 -5.09375 C 10.59375 -3.394531 10.828125 -2.265625 11.296875 -1.703125 C 11.773438 -1.148438 12.765625 -0.875 14.265625 -0.875 C 17.828125 -0.875 20.585938 -1.519531 22.546875 -2.8125 C 24.503906 -4.101562 25.875 -5.988281 26.65625 -8.46875 C 27.445312 -10.957031 27.84375 -13.984375 27.84375 -17.546875 C 27.84375 -21.203125 27.410156 -24.234375 26.546875 -26.640625 C 25.679688 -29.046875 24.257812 -30.84375 22.28125 -32.03125 C 20.300781 -33.226562 17.613281 -33.828125 14.21875 -33.828125 Z M 14.21875 -33.828125 "/></g></g></g><g fill="#ffffff" fill-opacity="1"><g transform="translate(139.512603, 51.844328)"><g><path d="M 18.1875 -35.390625 C 20.34375 -35.390625 22.113281 -35.070312 23.5 -34.4375 C 24.894531 -33.800781 26.128906 -33.054688 27.203125 -32.203125 C 27.859375 -31.710938 28.359375 -31.65625 28.703125 -32.03125 C 29.046875 -32.40625 29.28125 -33.296875 29.40625 -34.703125 L 30.53125 -34.703125 C 30.46875 -33.492188 30.421875 -32.019531 30.390625 -30.28125 C 30.359375 -28.550781 30.34375 -26.265625 30.34375 -23.421875 L 29.21875 -23.421875 C 28.988281 -24.828125 28.773438 -25.945312 28.578125 -26.78125 C 28.378906 -27.613281 28.140625 -28.320312 27.859375 -28.90625 C 27.585938 -29.5 27.222656 -30.09375 26.765625 -30.6875 C 25.753906 -32.019531 24.476562 -32.988281 22.9375 -33.59375 C 21.40625 -34.195312 19.789062 -34.5 18.09375 -34.5 C 16.488281 -34.5 15.039062 -34.097656 13.75 -33.296875 C 12.457031 -32.503906 11.34375 -31.351562 10.40625 -29.84375 C 9.476562 -28.34375 8.757812 -26.53125 8.25 -24.40625 C 7.75 -22.28125 7.5 -19.894531 7.5 -17.25 C 7.5 -14.507812 7.773438 -12.082031 8.328125 -9.96875 C 8.890625 -7.863281 9.664062 -6.09375 10.65625 -4.65625 C 11.65625 -3.21875 12.832031 -2.128906 14.1875 -1.390625 C 15.539062 -0.660156 17.003906 -0.296875 18.578125 -0.296875 C 20.046875 -0.296875 21.582031 -0.585938 23.1875 -1.171875 C 24.789062 -1.765625 26.046875 -2.710938 26.953125 -4.015625 C 27.671875 -4.960938 28.171875 -5.992188 28.453125 -7.109375 C 28.734375 -8.222656 28.988281 -9.773438 29.21875 -11.765625 L 30.34375 -11.765625 C 30.34375 -8.785156 30.359375 -6.390625 30.390625 -4.578125 C 30.421875 -2.765625 30.46875 -1.238281 30.53125 0 L 29.40625 0 C 29.28125 -1.40625 29.0625 -2.285156 28.75 -2.640625 C 28.4375 -3.003906 27.921875 -2.957031 27.203125 -2.5 C 25.992188 -1.644531 24.710938 -0.898438 23.359375 -0.265625 C 22.003906 0.367188 20.265625 0.6875 18.140625 0.6875 C 15.035156 0.6875 12.3125 -0.015625 9.96875 -1.421875 C 7.632812 -2.828125 5.820312 -4.851562 4.53125 -7.5 C 3.238281 -10.144531 2.59375 -13.332031 2.59375 -17.0625 C 2.59375 -20.71875 3.257812 -23.914062 4.59375 -26.65625 C 5.9375 -29.40625 7.773438 -31.546875 10.109375 -33.078125 C 12.453125 -34.617188 15.144531 -35.390625 18.1875 -35.390625 Z M 18.1875 -35.390625 "/></g></g></g><g fill="#ffffff" fill-opacity="1"><g transform="translate(173.237556, 51.844328)"><g><path d="M 2.0625 -34.703125 C 2.75 -34.671875 3.644531 -34.640625 4.75 -34.609375 C 5.863281 -34.578125 6.957031 -34.5625 8.03125 -34.5625 C 9.570312 -34.5625 11.046875 -34.578125 12.453125 -34.609375 C 13.859375 -34.640625 14.851562 -34.65625 15.4375 -34.65625 C 18.082031 -34.65625 20.28125 -34.28125 22.03125 -33.53125 C 23.78125 -32.78125 25.085938 -31.757812 25.953125 -30.46875 C 26.816406 -29.175781 27.25 -27.726562 27.25 -26.125 C 27.25 -25.144531 27.050781 -24.097656 26.65625 -22.984375 C 26.269531 -21.878906 25.59375 -20.832031 24.625 -19.84375 C 23.664062 -18.863281 22.351562 -18.054688 20.6875 -17.421875 C 19.019531 -16.785156 16.910156 -16.46875 14.359375 -16.46875 L 9.65625 -16.46875 L 9.65625 -17.453125 L 13.875 -17.453125 C 16.1875 -17.453125 17.957031 -17.816406 19.1875 -18.546875 C 20.414062 -19.285156 21.25 -20.265625 21.6875 -21.484375 C 22.125 -22.710938 22.34375 -24.082031 22.34375 -25.59375 C 22.34375 -28.164062 21.726562 -30.160156 20.5 -31.578125 C 19.28125 -33.003906 17.1875 -33.71875 14.21875 -33.71875 C 12.707031 -33.71875 11.722656 -33.441406 11.265625 -32.890625 C 10.816406 -32.335938 10.59375 -31.207031 10.59375 -29.5 L 10.59375 -5.203125 C 10.59375 -4.023438 10.6875 -3.140625 10.875 -2.546875 C 11.070312 -1.960938 11.457031 -1.570312 12.03125 -1.375 C 12.601562 -1.175781 13.445312 -1.046875 14.5625 -0.984375 L 14.5625 0 C 13.8125 -0.0625 12.867188 -0.0976562 11.734375 -0.109375 C 10.609375 -0.128906 9.472656 -0.140625 8.328125 -0.140625 C 7.054688 -0.140625 5.863281 -0.128906 4.75 -0.109375 C 3.644531 -0.0976562 2.75 -0.0625 2.0625 0 L 2.0625 -0.984375 C 3.164062 -1.046875 4.003906 -1.175781 4.578125 -1.375 C 5.148438 -1.570312 5.535156 -1.960938 5.734375 -2.546875 C 5.929688 -3.140625 6.03125 -4.023438 6.03125 -5.203125 L 6.03125 -29.5 C 6.03125 -30.71875 5.929688 -31.609375 5.734375 -32.171875 C 5.535156 -32.742188 5.148438 -33.132812 4.578125 -33.34375 C 4.003906 -33.5625 3.164062 -33.6875 2.0625 -33.71875 Z M 9.859375 -17.296875 C 11.617188 -17.234375 13.003906 -17.160156 14.015625 -17.078125 C 15.023438 -16.992188 15.847656 -16.921875 16.484375 -16.859375 C 17.128906 -16.796875 17.742188 -16.710938 18.328125 -16.609375 C 20.515625 -16.253906 22.085938 -15.59375 23.046875 -14.625 C 24.015625 -13.664062 24.726562 -12.171875 25.1875 -10.140625 L 26.421875 -5.140625 C 26.742188 -3.703125 27.078125 -2.664062 27.421875 -2.03125 C 27.765625 -1.394531 28.296875 -1.09375 29.015625 -1.125 C 29.566406 -1.15625 30.03125 -1.332031 30.40625 -1.65625 C 30.789062 -1.988281 31.191406 -2.429688 31.609375 -2.984375 L 32.34375 -2.453125 C 31.664062 -1.441406 30.957031 -0.664062 30.21875 -0.125 C 29.476562 0.414062 28.441406 0.6875 27.109375 0.6875 C 25.898438 0.6875 24.835938 0.328125 23.921875 -0.390625 C 23.003906 -1.109375 22.316406 -2.515625 21.859375 -4.609375 L 20.78125 -9.515625 C 20.488281 -10.910156 20.15625 -12.125 19.78125 -13.15625 C 19.40625 -14.1875 18.878906 -14.992188 18.203125 -15.578125 C 17.535156 -16.171875 16.550781 -16.46875 15.25 -16.46875 L 9.953125 -16.46875 Z M 9.859375 -17.296875 "/></g></g></g><g fill="#ffffff" fill-opacity="1"><g transform="translate(205.001765, 51.844328)"><g><path d="M 15.828125 -34.953125 L 27.796875 -4.125 C 28.285156 -2.875 28.835938 -2.046875 29.453125 -1.640625 C 30.078125 -1.234375 30.648438 -1.015625 31.171875 -0.984375 L 31.171875 0 C 30.515625 -0.0625 29.710938 -0.0976562 28.765625 -0.109375 C 27.816406 -0.128906 26.867188 -0.140625 25.921875 -0.140625 C 24.648438 -0.140625 23.457031 -0.128906 22.34375 -0.109375 C 21.238281 -0.0976562 20.34375 -0.0625 19.65625 0 L 19.65625 -0.984375 C 21.320312 -1.046875 22.382812 -1.328125 22.84375 -1.828125 C 23.300781 -2.335938 23.203125 -3.425781 22.546875 -5.09375 L 13.4375 -29.453125 L 14.21875 -30.09375 L 5.6875 -7.9375 C 5.164062 -6.632812 4.851562 -5.53125 4.75 -4.625 C 4.65625 -3.726562 4.742188 -3.019531 5.015625 -2.5 C 5.296875 -1.976562 5.769531 -1.601562 6.4375 -1.375 C 7.113281 -1.144531 7.957031 -1.015625 8.96875 -0.984375 L 8.96875 0 C 8.050781 -0.0625 7.09375 -0.0976562 6.09375 -0.109375 C 5.101562 -0.128906 4.179688 -0.140625 3.328125 -0.140625 C 2.515625 -0.140625 1.820312 -0.128906 1.25 -0.109375 C 0.675781 -0.0976562 0.144531 -0.0625 -0.34375 0 L -0.34375 -0.984375 C 0.3125 -1.140625 0.984375 -1.519531 1.671875 -2.125 C 2.359375 -2.726562 2.976562 -3.769531 3.53125 -5.25 L 15.046875 -34.953125 C 15.179688 -34.953125 15.3125 -34.953125 15.4375 -34.953125 C 15.570312 -34.953125 15.703125 -34.953125 15.828125 -34.953125 Z M 21.8125 -14.109375 L 21.8125 -13.140625 L 7.203125 -13.140625 L 7.703125 -14.109375 Z M 21.8125 -14.109375 "/></g></g></g><g fill="#ffffff" fill-opacity="1"><g transform="translate(235.883633, 51.844328)"><g><path d="M 26.515625 -34.703125 C 26.390625 -33.460938 26.300781 -32.257812 26.25 -31.09375 C 26.195312 -29.9375 26.171875 -29.046875 26.171875 -28.421875 C 26.171875 -27.640625 26.1875 -26.90625 26.21875 -26.21875 C 26.25 -25.53125 26.285156 -24.925781 26.328125 -24.40625 L 25.1875 -24.40625 C 24.957031 -26.695312 24.644531 -28.503906 24.25 -29.828125 C 23.863281 -31.148438 23.179688 -32.101562 22.203125 -32.6875 C 21.222656 -33.28125 19.703125 -33.578125 17.640625 -33.578125 L 14.5625 -33.578125 C 13.445312 -33.578125 12.601562 -33.484375 12.03125 -33.296875 C 11.457031 -33.117188 11.070312 -32.742188 10.875 -32.171875 C 10.6875 -31.609375 10.59375 -30.71875 10.59375 -29.5 L 10.59375 -5.203125 C 10.59375 -4.023438 10.710938 -3.140625 10.953125 -2.546875 C 11.203125 -1.960938 11.6875 -1.570312 12.40625 -1.375 C 13.125 -1.175781 14.164062 -1.046875 15.53125 -0.984375 L 15.53125 0 C 14.6875 -0.0625 13.609375 -0.0976562 12.296875 -0.109375 C 10.992188 -0.128906 9.671875 -0.140625 8.328125 -0.140625 C 7.054688 -0.140625 5.863281 -0.128906 4.75 -0.109375 C 3.644531 -0.0976562 2.75 -0.0625 2.0625 0 L 2.0625 -0.984375 C 3.164062 -1.046875 4.003906 -1.175781 4.578125 -1.375 C 5.148438 -1.570312 5.535156 -1.960938 5.734375 -2.546875 C 5.929688 -3.140625 6.03125 -4.023438 6.03125 -5.203125 L 6.03125 -29.5 C 6.03125 -30.71875 5.929688 -31.609375 5.734375 -32.171875 C 5.535156 -32.742188 5.148438 -33.132812 4.578125 -33.34375 C 4.003906 -33.5625 3.164062 -33.6875 2.0625 -33.71875 L 2.0625 -34.703125 C 3.269531 -34.671875 4.539062 -34.644531 5.875 -34.625 C 7.21875 -34.613281 8.539062 -34.597656 9.84375 -34.578125 C 11.15625 -34.566406 12.375 -34.5625 13.5 -34.5625 C 14.625 -34.5625 15.546875 -34.5625 16.265625 -34.5625 C 17.773438 -34.5625 19.484375 -34.566406 21.390625 -34.578125 C 23.304688 -34.597656 25.015625 -34.640625 26.515625 -34.703125 Z M 18.921875 -17.453125 C 18.921875 -17.453125 18.921875 -17.285156 18.921875 -16.953125 C 18.921875 -16.628906 18.921875 -16.46875 18.921875 -16.46875 L 9.109375 -16.46875 C 9.109375 -16.46875 9.109375 -16.628906 9.109375 -16.953125 C 9.109375 -17.285156 9.109375 -17.453125 9.109375 -17.453125 Z M 19.84375 -23.921875 C 19.71875 -22.054688 19.660156 -20.632812 19.671875 -19.65625 C 19.691406 -18.675781 19.703125 -17.773438 19.703125 -16.953125 C 19.703125 -16.140625 19.71875 -15.242188 19.75 -14.265625 C 19.78125 -13.285156 19.863281 -11.863281 20 -10 L 18.875 -10 C 18.738281 -11.039062 18.582031 -12.0625 18.40625 -13.0625 C 18.226562 -14.0625 17.835938 -14.878906 17.234375 -15.515625 C 16.628906 -16.148438 15.609375 -16.46875 14.171875 -16.46875 L 14.171875 -17.453125 C 15.242188 -17.453125 16.066406 -17.671875 16.640625 -18.109375 C 17.210938 -18.546875 17.628906 -19.109375 17.890625 -19.796875 C 18.148438 -20.484375 18.328125 -21.191406 18.421875 -21.921875 C 18.523438 -22.660156 18.625 -23.328125 18.71875 -23.921875 Z M 19.84375 -23.921875 "/></g></g></g><g fill="#ffffff" fill-opacity="1"><g transform="translate(263.775347, 51.844328)"><g><path d="M 29.015625 -34.703125 C 28.890625 -33.460938 28.800781 -32.257812 28.75 -31.09375 C 28.695312 -29.9375 28.671875 -29.046875 28.671875 -28.421875 C 28.671875 -27.640625 28.6875 -26.90625 28.71875 -26.21875 C 28.75 -25.53125 28.785156 -24.925781 28.828125 -24.40625 L 27.6875 -24.40625 C 27.457031 -26.695312 27.144531 -28.503906 26.75 -29.828125 C 26.363281 -31.148438 25.679688 -32.101562 24.703125 -32.6875 C 23.722656 -33.28125 22.203125 -33.578125 20.140625 -33.578125 L 17.5 -33.578125 L 17.5 -5.6875 C 17.5 -4.375 17.617188 -3.390625 17.859375 -2.734375 C 18.109375 -2.085938 18.59375 -1.648438 19.3125 -1.421875 C 20.03125 -1.191406 21.078125 -1.046875 22.453125 -0.984375 L 22.453125 0 C 21.597656 -0.0625 20.515625 -0.0976562 19.203125 -0.109375 C 17.898438 -0.128906 16.582031 -0.140625 15.25 -0.140625 C 13.769531 -0.140625 12.382812 -0.128906 11.09375 -0.109375 C 9.8125 -0.0976562 8.773438 -0.0625 7.984375 0 L 7.984375 -0.984375 C 9.359375 -1.046875 10.40625 -1.191406 11.125 -1.421875 C 11.84375 -1.648438 12.320312 -2.085938 12.5625 -2.734375 C 12.8125 -3.390625 12.9375 -4.375 12.9375 -5.6875 L 12.9375 -33.578125 L 10.296875 -33.578125 C 8.265625 -33.578125 6.75 -33.28125 5.75 -32.6875 C 4.757812 -32.101562 4.066406 -31.148438 3.671875 -29.828125 C 3.285156 -28.503906 2.976562 -26.695312 2.75 -24.40625 L 1.625 -24.40625 C 1.6875 -24.925781 1.722656 -25.53125 1.734375 -26.21875 C 1.753906 -26.90625 1.765625 -27.640625 1.765625 -28.421875 C 1.765625 -29.046875 1.738281 -29.9375 1.6875 -31.09375 C 1.644531 -32.257812 1.554688 -33.460938 1.421875 -34.703125 C 2.796875 -34.671875 4.289062 -34.640625 5.90625 -34.609375 C 7.519531 -34.578125 9.144531 -34.5625 10.78125 -34.5625 C 12.414062 -34.5625 13.90625 -34.5625 15.25 -34.5625 C 16.582031 -34.5625 18.054688 -34.5625 19.671875 -34.5625 C 21.296875 -34.5625 22.921875 -34.578125 24.546875 -34.609375 C 26.179688 -34.640625 27.671875 -34.671875 29.015625 -34.703125 Z M 29.015625 -34.703125 "/></g></g></g><g fill="#ffffff" fill-opacity="1"><g transform="translate(294.216044, 51.844328)"><g><path d="M 26.515625 -34.703125 C 26.390625 -33.554688 26.300781 -32.441406 26.25 -31.359375 C 26.195312 -30.285156 26.171875 -29.472656 26.171875 -28.921875 C 26.171875 -28.328125 26.1875 -27.757812 26.21875 -27.21875 C 26.25 -26.6875 26.285156 -26.238281 26.328125 -25.875 L 25.1875 -25.875 C 25 -27.800781 24.722656 -29.328125 24.359375 -30.453125 C 24.003906 -31.585938 23.390625 -32.390625 22.515625 -32.859375 C 21.648438 -33.335938 20.351562 -33.578125 18.625 -33.578125 L 14.5625 -33.578125 C 13.445312 -33.578125 12.601562 -33.484375 12.03125 -33.296875 C 11.457031 -33.117188 11.070312 -32.742188 10.875 -32.171875 C 10.6875 -31.609375 10.59375 -30.71875 10.59375 -29.5 L 10.59375 -5.203125 C 10.59375 -4.023438 10.6875 -3.140625 10.875 -2.546875 C 11.070312 -1.960938 11.457031 -1.578125 12.03125 -1.390625 C 12.601562 -1.210938 13.445312 -1.125 14.5625 -1.125 L 18.140625 -1.125 C 20.191406 -1.125 21.75 -1.398438 22.8125 -1.953125 C 23.875 -2.515625 24.640625 -3.421875 25.109375 -4.671875 C 25.585938 -5.929688 25.941406 -7.640625 26.171875 -9.796875 L 27.296875 -9.796875 C 27.203125 -8.921875 27.15625 -7.75 27.15625 -6.28125 C 27.15625 -5.65625 27.175781 -4.757812 27.21875 -3.59375 C 27.269531 -2.4375 27.363281 -1.238281 27.5 0 C 25.832031 -0.0625 23.953125 -0.0976562 21.859375 -0.109375 C 19.765625 -0.128906 17.898438 -0.140625 16.265625 -0.140625 C 15.546875 -0.140625 14.625 -0.140625 13.5 -0.140625 C 12.375 -0.140625 11.15625 -0.128906 9.84375 -0.109375 C 8.539062 -0.0976562 7.21875 -0.0820312 5.875 -0.0625 C 4.539062 -0.0507812 3.269531 -0.03125 2.0625 0 L 2.0625 -0.984375 C 3.164062 -1.046875 4.003906 -1.175781 4.578125 -1.375 C 5.148438 -1.570312 5.535156 -1.960938 5.734375 -2.546875 C 5.929688 -3.140625 6.03125 -4.023438 6.03125 -5.203125 L 6.03125 -29.5 C 6.03125 -30.71875 5.929688 -31.609375 5.734375 -32.171875 C 5.535156 -32.742188 5.148438 -33.132812 4.578125 -33.34375 C 4.003906 -33.5625 3.164062 -33.6875 2.0625 -33.71875 L 2.0625 -34.703125 C 3.269531 -34.671875 4.539062 -34.644531 5.875 -34.625 C 7.21875 -34.613281 8.539062 -34.597656 9.84375 -34.578125 C 11.15625 -34.566406 12.375 -34.5625 13.5 -34.5625 C 14.625 -34.5625 15.546875 -34.5625 16.265625 -34.5625 C 17.773438 -34.5625 19.484375 -34.566406 21.390625 -34.578125 C 23.304688 -34.597656 25.015625 -34.640625 26.515625 -34.703125 Z M 18.09375 -17.9375 C 18.09375 -17.9375 18.09375 -17.769531 18.09375 -17.4375 C 18.09375 -17.113281 18.09375 -16.953125 18.09375 -16.953125 L 9.109375 -16.953125 C 9.109375 -16.953125 9.109375 -17.113281 9.109375 -17.4375 C 9.109375 -17.769531 9.109375 -17.9375 9.109375 -17.9375 Z M 19.515625 -24.40625 C 19.378906 -22.539062 19.316406 -21.117188 19.328125 -20.140625 C 19.347656 -19.160156 19.359375 -18.265625 19.359375 -17.453125 C 19.359375 -16.628906 19.375 -15.726562 19.40625 -14.75 C 19.4375 -13.769531 19.519531 -12.347656 19.65625 -10.484375 L 18.53125 -10.484375 C 18.394531 -11.535156 18.238281 -12.554688 18.0625 -13.546875 C 17.882812 -14.546875 17.492188 -15.363281 16.890625 -16 C 16.285156 -16.632812 15.265625 -16.953125 13.828125 -16.953125 L 13.828125 -17.9375 C 14.898438 -17.9375 15.722656 -18.15625 16.296875 -18.59375 C 16.867188 -19.039062 17.285156 -19.609375 17.546875 -20.296875 C 17.804688 -20.984375 17.984375 -21.691406 18.078125 -22.421875 C 18.179688 -23.160156 18.28125 -23.820312 18.375 -24.40625 Z M 19.515625 -24.40625 "/></g></g></g><g fill="#ffffff" fill-opacity="1"><g transform="translate(324.068483, 51.844328)"><g><path d="M 15.4375 -34.703125 C 21.289062 -34.703125 25.640625 -33.238281 28.484375 -30.3125 C 31.328125 -27.382812 32.75 -23.195312 32.75 -17.75 C 32.75 -14.1875 32.050781 -11.070312 30.65625 -8.40625 C 29.269531 -5.738281 27.253906 -3.671875 24.609375 -2.203125 C 21.960938 -0.734375 18.757812 0 15 0 C 14.507812 0 13.851562 -0.015625 13.03125 -0.046875 C 12.21875 -0.078125 11.378906 -0.0976562 10.515625 -0.109375 C 9.648438 -0.128906 8.859375 -0.140625 8.140625 -0.140625 C 6.992188 -0.140625 5.863281 -0.128906 4.75 -0.109375 C 3.644531 -0.0976562 2.75 -0.0625 2.0625 0 L 2.0625 -0.984375 C 3.164062 -1.046875 4.003906 -1.175781 4.578125 -1.375 C 5.148438 -1.570312 5.535156 -1.960938 5.734375 -2.546875 C 5.929688 -3.140625 6.03125 -4.023438 6.03125 -5.203125 L 6.03125 -29.5 C 6.03125 -30.71875 5.929688 -31.609375 5.734375 -32.171875 C 5.535156 -32.742188 5.148438 -33.132812 4.578125 -33.34375 C 4.003906 -33.5625 3.164062 -33.6875 2.0625 -33.71875 L 2.0625 -34.703125 C 2.75 -34.671875 3.644531 -34.628906 4.75 -34.578125 C 5.863281 -34.523438 6.957031 -34.519531 8.03125 -34.5625 C 9.175781 -34.59375 10.46875 -34.625 11.90625 -34.65625 C 13.34375 -34.6875 14.519531 -34.703125 15.4375 -34.703125 Z M 14.21875 -33.828125 C 12.707031 -33.828125 11.722656 -33.546875 11.265625 -32.984375 C 10.816406 -32.429688 10.59375 -31.304688 10.59375 -29.609375 L 10.59375 -5.09375 C 10.59375 -3.394531 10.828125 -2.265625 11.296875 -1.703125 C 11.773438 -1.148438 12.765625 -0.875 14.265625 -0.875 C 17.828125 -0.875 20.585938 -1.519531 22.546875 -2.8125 C 24.503906 -4.101562 25.875 -5.988281 26.65625 -8.46875 C 27.445312 -10.957031 27.84375 -13.984375 27.84375 -17.546875 C 27.84375 -21.203125 27.410156 -24.234375 26.546875 -26.640625 C 25.679688 -29.046875 24.257812 -30.84375 22.28125 -32.03125 C 20.300781 -33.226562 17.613281 -33.828125 14.21875 -33.828125 Z M 14.21875 -33.828125 "/></g></g></g><g fill="#ffffff" fill-opacity="1"><g transform="translate(98.824005, 120.470751)"><g><path d="M 22.546875 0 L 22.546875 -0.984375 C 23.660156 -1.046875 24.5 -1.175781 25.0625 -1.375 C 25.632812 -1.570312 26.019531 -1.960938 26.21875 -2.546875 C 26.414062 -3.140625 26.515625 -4.023438 26.515625 -5.203125 L 26.515625 -29.5 C 26.515625 -30.71875 26.414062 -31.609375 26.21875 -32.171875 C 26.019531 -32.742188 25.632812 -33.132812 25.0625 -33.34375 C 24.5 -33.5625 23.660156 -33.6875 22.546875 -33.71875 L 22.546875 -34.703125 C 23.296875 -34.671875 24.242188 -34.640625 25.390625 -34.609375 C 26.535156 -34.578125 27.660156 -34.5625 28.765625 -34.5625 C 30.046875 -34.5625 31.238281 -34.578125 32.34375 -34.609375 C 33.457031 -34.640625 34.359375 -34.671875 35.046875 -34.703125 L 35.046875 -33.71875 C 33.929688 -33.6875 33.085938 -33.5625 32.515625 -33.34375 C 31.941406 -33.132812 31.554688 -32.742188 31.359375 -32.171875 C 31.171875 -31.609375 31.078125 -30.71875 31.078125 -29.5 L 31.078125 -5.203125 C 31.078125 -4.023438 31.171875 -3.140625 31.359375 -2.546875 C 31.554688 -1.960938 31.941406 -1.570312 32.515625 -1.375 C 33.085938 -1.175781 33.929688 -1.046875 35.046875 -0.984375 L 35.046875 0 C 34.359375 -0.0625 33.457031 -0.0976562 32.34375 -0.109375 C 31.238281 -0.128906 30.046875 -0.140625 28.765625 -0.140625 C 27.660156 -0.140625 26.535156 -0.128906 25.390625 -0.109375 C 24.242188 -0.0976562 23.296875 -0.0625 22.546875 0 Z M 2.0625 0 L 2.0625 -0.984375 C 3.164062 -1.046875 4.003906 -1.175781 4.578125 -1.375 C 5.148438 -1.570312 5.535156 -1.960938 5.734375 -2.546875 C 5.929688 -3.140625 6.03125 -4.023438 6.03125 -5.203125 L 6.03125 -29.5 C 6.03125 -30.71875 5.929688 -31.609375 5.734375 -32.171875 C 5.535156 -32.742188 5.148438 -33.132812 4.578125 -33.34375 C 4.003906 -33.5625 3.164062 -33.6875 2.0625 -33.71875 L 2.0625 -34.703125 C 2.75 -34.671875 3.644531 -34.640625 4.75 -34.609375 C 5.863281 -34.578125 7.054688 -34.5625 8.328125 -34.5625 C 9.472656 -34.5625 10.609375 -34.578125 11.734375 -34.609375 C 12.867188 -34.640625 13.8125 -34.671875 14.5625 -34.703125 L 14.5625 -33.71875 C 13.445312 -33.6875 12.601562 -33.5625 12.03125 -33.34375 C 11.457031 -33.132812 11.070312 -32.742188 10.875 -32.171875 C 10.6875 -31.609375 10.59375 -30.71875 10.59375 -29.5 L 10.59375 -5.203125 C 10.59375 -4.023438 10.6875 -3.140625 10.875 -2.546875 C 11.070312 -1.960938 11.457031 -1.570312 12.03125 -1.375 C 12.601562 -1.175781 13.445312 -1.046875 14.5625 -0.984375 L 14.5625 0 C 13.8125 -0.0625 12.867188 -0.0976562 11.734375 -0.109375 C 10.609375 -0.128906 9.472656 -0.140625 8.328125 -0.140625 C 7.054688 -0.140625 5.863281 -0.128906 4.75 -0.109375 C 3.644531 -0.0976562 2.75 -0.0625 2.0625 0 Z M 8.875 -16.953125 L 8.875 -17.9375 L 28.234375 -17.9375 L 28.234375 -16.953125 Z M 8.875 -16.953125 "/></g></g></g><g fill="#ffffff" fill-opacity="1"><g transform="translate(135.931253, 120.470751)"><g><path d="M 15.828125 -34.953125 L 27.796875 -4.125 C 28.285156 -2.875 28.835938 -2.046875 29.453125 -1.640625 C 30.078125 -1.234375 30.648438 -1.015625 31.171875 -0.984375 L 31.171875 0 C 30.515625 -0.0625 29.710938 -0.0976562 28.765625 -0.109375 C 27.816406 -0.128906 26.867188 -0.140625 25.921875 -0.140625 C 24.648438 -0.140625 23.457031 -0.128906 22.34375 -0.109375 C 21.238281 -0.0976562 20.34375 -0.0625 19.65625 0 L 19.65625 -0.984375 C 21.320312 -1.046875 22.382812 -1.328125 22.84375 -1.828125 C 23.300781 -2.335938 23.203125 -3.425781 22.546875 -5.09375 L 13.4375 -29.453125 L 14.21875 -30.09375 L 5.6875 -7.9375 C 5.164062 -6.632812 4.851562 -5.53125 4.75 -4.625 C 4.65625 -3.726562 4.742188 -3.019531 5.015625 -2.5 C 5.296875 -1.976562 5.769531 -1.601562 6.4375 -1.375 C 7.113281 -1.144531 7.957031 -1.015625 8.96875 -0.984375 L 8.96875 0 C 8.050781 -0.0625 7.09375 -0.0976562 6.09375 -0.109375 C 5.101562 -0.128906 4.179688 -0.140625 3.328125 -0.140625 C 2.515625 -0.140625 1.820312 -0.128906 1.25 -0.109375 C 0.675781 -0.0976562 0.144531 -0.0625 -0.34375 0 L -0.34375 -0.984375 C 0.3125 -1.140625 0.984375 -1.519531 1.671875 -2.125 C 2.359375 -2.726562 2.976562 -3.769531 3.53125 -5.25 L 15.046875 -34.953125 C 15.179688 -34.953125 15.3125 -34.953125 15.4375 -34.953125 C 15.570312 -34.953125 15.703125 -34.953125 15.828125 -34.953125 Z M 21.8125 -14.109375 L 21.8125 -13.140625 L 7.203125 -13.140625 L 7.703125 -14.109375 Z M 21.8125 -14.109375 "/></g></g></g><g fill="#ffffff" fill-opacity="1"><g transform="translate(166.813122, 120.470751)"><g><path d="M 31.21875 -34.703125 L 31.21875 -33.71875 C 30.601562 -33.59375 29.941406 -33.21875 29.234375 -32.59375 C 28.535156 -31.96875 27.90625 -30.921875 27.34375 -29.453125 L 15.828125 0.25 C 15.765625 0.25 15.695312 0.25 15.625 0.25 C 15.5625 0.25 15.5 0.25 15.4375 0.25 C 15.375 0.25 15.304688 0.25 15.234375 0.25 C 15.171875 0.25 15.109375 0.25 15.046875 0.25 L 3.09375 -30.578125 C 2.601562 -31.828125 2.046875 -32.65625 1.421875 -33.0625 C 0.796875 -33.46875 0.222656 -33.6875 -0.296875 -33.71875 L -0.296875 -34.703125 C 0.359375 -34.671875 1.164062 -34.640625 2.125 -34.609375 C 3.09375 -34.578125 4.035156 -34.5625 4.953125 -34.5625 C 6.222656 -34.5625 7.410156 -34.578125 8.515625 -34.609375 C 9.628906 -34.640625 10.53125 -34.671875 11.21875 -34.703125 L 11.21875 -33.71875 C 10.113281 -33.6875 9.273438 -33.554688 8.703125 -33.328125 C 8.128906 -33.097656 7.816406 -32.695312 7.765625 -32.125 C 7.722656 -31.550781 7.910156 -30.710938 8.328125 -29.609375 L 17.453125 -5.4375 L 16.671875 -4.609375 L 25.1875 -26.765625 C 25.875 -28.523438 26.203125 -29.90625 26.171875 -30.90625 C 26.140625 -31.90625 25.765625 -32.613281 25.046875 -33.03125 C 24.328125 -33.457031 23.28125 -33.6875 21.90625 -33.71875 L 21.90625 -34.703125 C 22.851562 -34.671875 23.816406 -34.640625 24.796875 -34.609375 C 25.773438 -34.578125 26.691406 -34.5625 27.546875 -34.5625 C 28.398438 -34.5625 29.101562 -34.578125 29.65625 -34.609375 C 30.207031 -34.640625 30.726562 -34.671875 31.21875 -34.703125 Z M 31.21875 -34.703125 "/></g></g></g><g fill="#ffffff" fill-opacity="1"><g transform="translate(197.69499, 120.470751)"><g><path d="M 26.515625 -34.703125 C 26.390625 -33.554688 26.300781 -32.441406 26.25 -31.359375 C 26.195312 -30.285156 26.171875 -29.472656 26.171875 -28.921875 C 26.171875 -28.328125 26.1875 -27.757812 26.21875 -27.21875 C 26.25 -26.6875 26.285156 -26.238281 26.328125 -25.875 L 25.1875 -25.875 C 25 -27.800781 24.722656 -29.328125 24.359375 -30.453125 C 24.003906 -31.585938 23.390625 -32.390625 22.515625 -32.859375 C 21.648438 -33.335938 20.351562 -33.578125 18.625 -33.578125 L 14.5625 -33.578125 C 13.445312 -33.578125 12.601562 -33.484375 12.03125 -33.296875 C 11.457031 -33.117188 11.070312 -32.742188 10.875 -32.171875 C 10.6875 -31.609375 10.59375 -30.71875 10.59375 -29.5 L 10.59375 -5.203125 C 10.59375 -4.023438 10.6875 -3.140625 10.875 -2.546875 C 11.070312 -1.960938 11.457031 -1.578125 12.03125 -1.390625 C 12.601562 -1.210938 13.445312 -1.125 14.5625 -1.125 L 18.140625 -1.125 C 20.191406 -1.125 21.75 -1.398438 22.8125 -1.953125 C 23.875 -2.515625 24.640625 -3.421875 25.109375 -4.671875 C 25.585938 -5.929688 25.941406 -7.640625 26.171875 -9.796875 L 27.296875 -9.796875 C 27.203125 -8.921875 27.15625 -7.75 27.15625 -6.28125 C 27.15625 -5.65625 27.175781 -4.757812 27.21875 -3.59375 C 27.269531 -2.4375 27.363281 -1.238281 27.5 0 C 25.832031 -0.0625 23.953125 -0.0976562 21.859375 -0.109375 C 19.765625 -0.128906 17.898438 -0.140625 16.265625 -0.140625 C 15.546875 -0.140625 14.625 -0.140625 13.5 -0.140625 C 12.375 -0.140625 11.15625 -0.128906 9.84375 -0.109375 C 8.539062 -0.0976562 7.21875 -0.0820312 5.875 -0.0625 C 4.539062 -0.0507812 3.269531 -0.03125 2.0625 0 L 2.0625 -0.984375 C 3.164062 -1.046875 4.003906 -1.175781 4.578125 -1.375 C 5.148438 -1.570312 5.535156 -1.960938 5.734375 -2.546875 C 5.929688 -3.140625 6.03125 -4.023438 6.03125 -5.203125 L 6.03125 -29.5 C 6.03125 -30.71875 5.929688 -31.609375 5.734375 -32.171875 C 5.535156 -32.742188 5.148438 -33.132812 4.578125 -33.34375 C 4.003906 -33.5625 3.164062 -33.6875 2.0625 -33.71875 L 2.0625 -34.703125 C 3.269531 -34.671875 4.539062 -34.644531 5.875 -34.625 C 7.21875 -34.613281 8.539062 -34.597656 9.84375 -34.578125 C 11.15625 -34.566406 12.375 -34.5625 13.5 -34.5625 C 14.625 -34.5625 15.546875 -34.5625 16.265625 -34.5625 C 17.773438 -34.5625 19.484375 -34.566406 21.390625 -34.578125 C 23.304688 -34.597656 25.015625 -34.640625 26.515625 -34.703125 Z M 18.09375 -17.9375 C 18.09375 -17.9375 18.09375 -17.769531 18.09375 -17.4375 C 18.09375 -17.113281 18.09375 -16.953125 18.09375 -16.953125 L 9.109375 -16.953125 C 9.109375 -16.953125 9.109375 -17.113281 9.109375 -17.4375 C 9.109375 -17.769531 9.109375 -17.9375 9.109375 -17.9375 Z M 19.515625 -24.40625 C 19.378906 -22.539062 19.316406 -21.117188 19.328125 -20.140625 C 19.347656 -19.160156 19.359375 -18.265625 19.359375 -17.453125 C 19.359375 -16.628906 19.375 -15.726562 19.40625 -14.75 C 19.4375 -13.769531 19.519531 -12.347656 19.65625 -10.484375 L 18.53125 -10.484375 C 18.394531 -11.535156 18.238281 -12.554688 18.0625 -13.546875 C 17.882812 -14.546875 17.492188 -15.363281 16.890625 -16 C 16.285156 -16.632812 15.265625 -16.953125 13.828125 -16.953125 L 13.828125 -17.9375 C 14.898438 -17.9375 15.722656 -18.15625 16.296875 -18.59375 C 16.867188 -19.039062 17.285156 -19.609375 17.546875 -20.296875 C 17.804688 -20.984375 17.984375 -21.691406 18.078125 -22.421875 C 18.179688 -23.160156 18.28125 -23.820312 18.375 -24.40625 Z M 19.515625 -24.40625 "/></g></g></g><g fill="#ffffff" fill-opacity="1"><g transform="translate(227.547447, 120.470751)"><g><path d="M 32.84375 -34.703125 L 32.84375 -33.71875 C 31.726562 -33.6875 30.882812 -33.523438 30.3125 -33.234375 C 29.738281 -32.941406 29.351562 -32.46875 29.15625 -31.8125 C 28.96875 -31.15625 28.875 -30.222656 28.875 -29.015625 L 28.875 0.25 C 28.675781 0.25 28.484375 0.25 28.296875 0.25 C 28.117188 0.25 27.9375 0.25 27.75 0.25 L 7.15625 -31.5625 L 7.15625 -5.6875 C 7.15625 -4.507812 7.257812 -3.582031 7.46875 -2.90625 C 7.6875 -2.238281 8.113281 -1.765625 8.75 -1.484375 C 9.382812 -1.210938 10.335938 -1.046875 11.609375 -0.984375 L 11.609375 0 C 11.023438 -0.0625 10.257812 -0.0976562 9.3125 -0.109375 C 8.363281 -0.128906 7.460938 -0.140625 6.609375 -0.140625 C 5.796875 -0.140625 4.972656 -0.128906 4.140625 -0.109375 C 3.304688 -0.0976562 2.613281 -0.0625 2.0625 0 L 2.0625 -0.984375 C 3.164062 -1.046875 4.003906 -1.210938 4.578125 -1.484375 C 5.148438 -1.765625 5.535156 -2.238281 5.734375 -2.90625 C 5.929688 -3.582031 6.03125 -4.507812 6.03125 -5.6875 L 6.03125 -29.5 C 6.03125 -30.71875 5.929688 -31.609375 5.734375 -32.171875 C 5.535156 -32.742188 5.148438 -33.132812 4.578125 -33.34375 C 4.003906 -33.5625 3.164062 -33.6875 2.0625 -33.71875 L 2.0625 -34.703125 C 2.613281 -34.671875 3.304688 -34.640625 4.140625 -34.609375 C 4.972656 -34.578125 5.796875 -34.5625 6.609375 -34.5625 C 7.335938 -34.5625 8.023438 -34.578125 8.671875 -34.609375 C 9.328125 -34.640625 9.914062 -34.671875 10.4375 -34.703125 L 27.75 -8.03125 L 27.75 -29.015625 C 27.75 -30.222656 27.640625 -31.15625 27.421875 -31.8125 C 27.210938 -32.46875 26.785156 -32.941406 26.140625 -33.234375 C 25.503906 -33.523438 24.550781 -33.6875 23.28125 -33.71875 L 23.28125 -34.703125 C 23.875 -34.671875 24.648438 -34.640625 25.609375 -34.609375 C 26.578125 -34.578125 27.46875 -34.5625 28.28125 -34.5625 C 29.132812 -34.5625 29.976562 -34.578125 30.8125 -34.609375 C 31.644531 -34.640625 32.320312 -34.671875 32.84375 -34.703125 Z M 32.84375 -34.703125 "/></g></g></g></g></g><path fill="#ffffff" d="M 178.007812 91.574219 C 173.949219 98.867188 171.769531 105.902344 171.21875 112.375 C 174.304688 114.964844 177.203125 117.878906 179.835938 121.140625 C 186.160156 109.960938 197.519531 95.707031 216.972656 86.835938 C 216.972656 86.835938 196.214844 98.558594 186.117188 130.773438 C 188.371094 135.195312 189.804688 139.613281 190.398438 143.882812 C 190.773438 144.089844 191.132812 144.269531 191.449219 144.378906 C 211.324219 151.386719 233.425781 132.859375 235.992188 105.199219 C 240.5 56.535156 258.28125 43.890625 258.28125 43.890625 C 258.28125 43.890625 200.582031 51.046875 178.007812 91.574219 Z M 178.007812 91.574219 " fill-opacity="1" fill-rule="nonzero"/><path fill="#ffffff" d="M 181.535156 129.167969 C 163.234375 98.851562 119.023438 94.929688 119.023438 94.929688 C 119.023438 94.929688 130.519531 99.101562 135.367188 139.621094 C 137.890625 160.675781 156.734375 171.863281 172.691406 169.8125 C 175.449219 169.457031 177.828125 168.984375 180.042969 170.542969 C 181.035156 171.238281 183.484375 176.335938 184.546875 179.585938 L 185.125 178.164062 C 185.632812 176.925781 185.730469 175.546875 185.351562 174.265625 C 177 146 151.683594 126.589844 151.683594 126.589844 C 171.890625 134.964844 181.273438 151.109375 184.886719 159.277344 C 189.066406 151.371094 188.421875 140.574219 181.535156 129.167969 Z M 181.535156 129.167969 " fill-opacity="1" fill-rule="nonzero"/><g clip-path="url(#5cb61cc651)"><path fill="#ffffff" d="M 187.496094 198.949219 C 165.933594 198.949219 145.660156 190.550781 130.417969 175.304688 C 115.171875 160.0625 106.773438 139.789062 106.773438 118.222656 C 106.773438 96.660156 115.171875 76.386719 130.417969 61.144531 C 145.660156 45.898438 165.933594 37.5 187.496094 37.5 C 200.871094 37.5 214.125 40.839844 225.816406 47.160156 C 226.507812 47.53125 226.761719 48.386719 226.390625 49.078125 C 226.019531 49.765625 225.160156 50.019531 224.472656 49.648438 C 213.191406 43.550781 200.40625 40.328125 187.496094 40.328125 C 144.542969 40.328125 109.601562 75.269531 109.601562 118.222656 C 109.601562 161.179688 144.542969 196.121094 187.496094 196.121094 C 230.453125 196.121094 265.394531 161.179688 265.394531 118.226562 C 265.394531 100.011719 258.976562 82.292969 247.324219 68.335938 C 246.824219 67.734375 246.902344 66.84375 247.5 66.34375 C 248.101562 65.84375 248.996094 65.921875 249.492188 66.519531 C 261.570312 80.988281 268.222656 99.347656 268.222656 118.226562 C 268.222656 139.789062 259.824219 160.0625 244.578125 175.304688 C 229.332031 190.550781 209.0625 198.949219 187.496094 198.949219 Z M 187.496094 198.949219 " fill-opacity="1" fill-rule="nonzero"/></g></svg>